<svg xmlns="http://www.w3.org/2000/svg" viewBox="0 0 49 49" shape-rendering="crispEdges"><path fill="#F7F2E8" d="M0 0h49v49H0z"/><path stroke="#1F4D3A" d="M4 4.5h7m1 0h3m1 0h4m1 0h4m1 0h2m1 0h4m1 0h2m2 0h7M4 5.5h1m5 0h1m2 0h1m2 0h2m1 0h3m2 0h2m4 0h1m1 0h2m1 0h1m2 0h1m5 0h1M4 6.5h1m1 0h3m1 0h1m2 0h1m1 0h5m1 0h2m1 0h1m1 0h1m2 0h3m4 0h1m1 0h1m1 0h3m1 0h1M4 7.5h1m1 0h3m1 0h1m1 0h2m1 0h1m1 0h2m2 0h2m3 0h6m1 0h1m1 0h1m2 0h1m1 0h3m1 0h1M4 8.5h1m1 0h3m1 0h1m2 0h2m5 0h1m3 0h1m1 0h1m3 0h4m1 0h1m2 0h1m1 0h3m1 0h1M4 9.5h1m5 0h1m2 0h8m2 0h3m1 0h1m3 0h3m1 0h2m1 0h1m5 0h1M4 10.5h7m1 0h1m1 0h1m1 0h1m1 0h1m1 0h1m1 0h1m1 0h1m1 0h1m1 0h1m1 0h1m1 0h1m1 0h1m1 0h1m1 0h7M13 11.5h1m2 0h1m2 0h1m4 0h3m3 0h5M6 12.5h1m1 0h3m1 0h1m1 0h1m4 0h2m3 0h2m2 0h2m2 0h2m2 0h2m3 0h1m2 0h1M4 13.5h3m1 0h2m2 0h3m1 0h1m1 0h1m1 0h3m2 0h2m5 0h1m3 0h3m2 0h2m1 0h1M4 14.5h1m3 0h1m1 0h2m2 0h3m3 0h1m2 0h1m3 0h3m2 0h2m4 0h1m1 0h1m1 0h1m1 0h1M5 15.5h2m1 0h1m3 0h1m2 0h3m2 0h2m2 0h2m1 0h1m1 0h2m1 0h3m1 0h1m1 0h2m3 0h2M5 16.5h1m2 0h3m1 0h5m1 0h3m2 0h2m1 0h4m1 0h1m1 0h1m1 0h4m2 0h1m1 0h1M4 17.5h1m3 0h2m2 0h2m1 0h3m2 0h3m3 0h1m1 0h2m1 0h1m3 0h2m6 0h2M7 18.5h4m1 0h1m3 0h1m2 0h1m1 0h1m2 0h5m4 0h1m1 0h2m1 0h1m2 0h4M4 19.5h2m6 0h1m1 0h2m2 0h4m1 0h4m3 0h2m1 0h2m1 0h1m1 0h1m1 0h1m3 0h1M5 20.5h2m3 0h1m2 0h1m2 0h2m1 0h2m3 0h3m1 0h1m1 0h1m1 0h2m1 0h1m2 0h2m1 0h1m2 0h1M5 21.5h1m2 0h2m2 0h7m1 0h1m1 0h1m1 0h2m1 0h4m1 0h1m1 0h1m1 0h1m1 0h1m3 0h3M4 22.5h3m1 0h1m1 0h1m1 0h1m3 0h2m2 0h3m1 0h2m6 0h2m4 0h1m1 0h2m1 0h2M8 23.5h2m1 0h1m2 0h2m3 0h4m2 0h2m3 0h2m7 0h1m3 0h1M4 24.5h4m2 0h2m1 0h3m1 0h5m1 0h1m1 0h3m1 0h2m1 0h1m3 0h4m3 0h2M7 25.5h1m3 0h3m3 0h3m4 0h1m1 0h2m1 0h2m1 0h1m3 0h3m3 0h3M9 26.5h8m1 0h9m2 0h2m2 0h1m4 0h2m2 0h3M6 27.5h1m1 0h2m3 0h5m1 0h1m2 0h1m2 0h1m1 0h1m1 0h1m1 0h3m1 0h1m6 0h1M4 28.5h2m2 0h1m1 0h3m1 0h2m2 0h1m1 0h1m1 0h1m1 0h1m3 0h1m1 0h1m1 0h2m2 0h4m1 0h1M5 29.5h2m2 0h1m4 0h1m2 0h3m2 0h1m1 0h2m1 0h1m4 0h2m4 0h1m4 0h1M4 30.5h1m2 0h2m1 0h1m1 0h1m1 0h1m1 0h2m6 0h1m4 0h2m2 0h1m4 0h2m2 0h1M4 31.5h3m2 0h1m1 0h3m1 0h1m3 0h1m2 0h2m1 0h1m2 0h1m1 0h2m1 0h1m2 0h2m2 0h1M7 32.5h2m1 0h1m1 0h1m1 0h1m1 0h3m5 0h1m2 0h2m2 0h3m1 0h2m1 0h1m2 0h1m2 0h1M6 33.5h1m1 0h1m9 0h3m2 0h1m1 0h5m1 0h3m1 0h1m1 0h1m3 0h1m1 0h2M4 34.5h1m2 0h4m1 0h2m3 0h1m3 0h2m1 0h1m1 0h1m1 0h7m1 0h1m2 0h2m1 0h3M5 35.5h4m3 0h2m4 0h3m1 0h1m4 0h1m1 0h1m2 0h2m3 0h3m3 0h2M4 36.5h1m2 0h6m3 0h2m1 0h5m1 0h1m1 0h2m2 0h3m2 0h5m2 0h1M12 37.5h5m1 0h1m2 0h2m1 0h1m2 0h2m4 0h2m1 0h1m3 0h1m1 0h1m1 0h1M4 38.5h7m2 0h2m1 0h1m1 0h2m1 0h1m1 0h1m2 0h1m1 0h1m3 0h1m1 0h3m1 0h1m1 0h5M4 39.5h1m5 0h1m1 0h1m1 0h1m1 0h2m2 0h2m2 0h3m2 0h1m1 0h4m1 0h1m3 0h2M4 40.5h1m1 0h3m1 0h1m1 0h4m4 0h2m1 0h1m1 0h3m1 0h2m1 0h1m1 0h1m1 0h5M4 41.5h1m1 0h3m1 0h1m2 0h1m1 0h1m1 0h1m1 0h1m6 0h1m3 0h1m1 0h3m1 0h2m2 0h1m1 0h3M4 42.5h1m1 0h3m1 0h1m1 0h2m1 0h2m1 0h1m4 0h4m2 0h1m2 0h2m2 0h1m2 0h4m1 0h1M4 43.5h1m5 0h1m2 0h3m2 0h1m3 0h1m2 0h1m2 0h1m3 0h2m1 0h2m1 0h2m2 0h2M4 44.5h7m3 0h1m2 0h2m1 0h3m1 0h1m1 0h1m5 0h2m1 0h6m2 0h2"/>
    <rect x="18.2" y="20.34375" width="12.600000000000001" height="8.3125" rx="1.2" fill="#F7F2E8" />
    <g transform="translate(19.6, 21.74375) scale(0.061250000000000006)">
      <path d="M140.00,50.00 C140.00,56.94 138.36,65.91 135.43,70.82 C132.50,75.72 127.84,79.44 122.43,79.44 C117.01,79.44 110.03,75.72 102.96,70.82 C95.89,65.91 87.65,56.94 80.00,50.00 C72.35,43.06 64.11,34.09 57.04,29.18 C49.97,24.28 42.99,20.56 37.57,20.56 C32.16,20.56 27.50,24.28 24.57,29.18 C21.64,34.09 20.00,43.06 20.00,50.00 C20.00,56.94 21.64,65.91 24.57,70.82 C27.50,75.72 32.16,79.44 37.57,79.44 C42.99,79.44 49.97,75.72 57.04,70.82 C64.11,65.91 72.35,56.94 80.00,50.00 C87.65,43.06 95.89,34.09 102.96,29.18 C110.03,24.28 117.01,20.56 122.43,20.56 C127.84,20.56 132.50,24.28 135.43,29.18 C138.36,34.09 140.00,43.06 140.00,50.00 Z" fill="none" stroke="#1F4D3A" stroke-width="4" stroke-linejoin="round" stroke-linecap="round" />
      <path d="M80,32.45 C81,37.45 83,39.45 88,40.45 C83,41.45 81,43.45 80,48.45 C79,43.45 77,41.45 72,40.45 C77,39.45 79,37.45 80,32.45 Z" fill="#C8A44D" />
    </g>
  </svg>
