<svg xmlns="http://www.w3.org/2000/svg" viewBox="0 0 49 49" shape-rendering="crispEdges"><path fill="#F7F2E8" d="M0 0h49v49H0z"/><path stroke="#1F4D3A" d="M4 4.5h7m1 0h3m1 0h4m1 0h4m1 0h2m1 0h4m1 0h2m2 0h7M4 5.5h1m5 0h1m2 0h1m2 0h2m1 0h3m2 0h2m4 0h1m1 0h2m1 0h1m2 0h1m5 0h1M4 6.5h1m1 0h3m1 0h1m2 0h1m1 0h5m1 0h2m1 0h1m1 0h1m2 0h3m4 0h1m1 0h1m1 0h3m1 0h1M4 7.5h1m1 0h3m1 0h1m1 0h2m1 0h1m1 0h2m2 0h2m3 0h6m1 0h1m1 0h1m2 0h1m1 0h3m1 0h1M4 8.5h1m1 0h3m1 0h1m2 0h2m5 0h1m3 0h1m1 0h1m3 0h4m1 0h1m2 0h1m1 0h3m1 0h1M4 9.5h1m5 0h1m2 0h8m2 0h3m1 0h1m3 0h3m1 0h2m1 0h1m5 0h1M4 10.5h7m1 0h1m1 0h1m1 0h1m1 0h1m1 0h1m1 0h1m1 0h1m1 0h1m1 0h1m1 0h1m1 0h1m1 0h1m1 0h1m1 0h7M13 11.5h1m2 0h1m2 0h1m4 0h3m3 0h5M6 12.5h1m1 0h3m1 0h1m1 0h1m4 0h2m3 0h2m2 0h2m2 0h2m2 0h2m3 0h1m2 0h1M4 13.5h3m1 0h2m2 0h3m1 0h1m1 0h1m1 0h3m2 0h2m5 0h1m3 0h3m2 0h2m1 0h1M4 14.5h1m3 0h1m1 0h2m2 0h3m3 0h1m2 0h1m3 0h3m2 0h2m4 0h1m1 0h1m1 0h1m1 0h1M5 15.5h2m1 0h1m3 0h1m2 0h3m2 0h2m2 0h2m1 0h1m1 0h2m1 0h3m1 0h1m1 0h2m3 0h2M5 16.5h1m2 0h3m1 0h5m1 0h3m2 0h2m1 0h4m1 0h1m1 0h1m1 0h4m2 0h1m1 0h1M4 17.5h1m3 0h2m2 0h2m1 0h3m2 0h3m3 0h1m1 0h2m1 0h1m3 0h2m6 0h2M7 18.5h4m1 0h1m3 0h1m2 0h1m1 0h1m2 0h5m4 0h1m1 0h2m1 0h1m2 0h4M4 19.5h2m6 0h1m1 0h2m2 0h4m1 0h4m3 0h2m1 0h2m1 0h1m1 0h1m1 0h1m3 0h1M5 20.5h2m3 0h1m2 0h1m2 0h2m1 0h2m3 0h3m1 0h1m1 0h1m1 0h2m1 0h1m2 0h2m1 0h1m2 0h1M5 21.5h1m2 0h2m2 0h7m1 0h1m1 0h1m1 0h2m1 0h4m1 0h1m1 0h1m1 0h1m1 0h1m3 0h3M4 22.5h3m1 0h1m1 0h1m1 0h1m3 0h2m2 0h3m1 0h2m6 0h2m4 0h1m1 0h2m1 0h2M8 23.5h2m1 0h1m2 0h2m3 0h4m2 0h2m3 0h2m7 0h1m3 0h1M4 24.5h4m2 0h2m1 0h3m1 0h5m1 0h1m1 0h3m1 0h2m1 0h1m3 0h4m3 0h2M7 25.5h1m3 0h3m3 0h3m4 0h1m1 0h2m1 0h2m1 0h1m3 0h3m3 0h3M9 26.5h8m1 0h9m2 0h2m2 0h1m4 0h2m2 0h3M6 27.5h1m1 0h2m3 0h5m1 0h1m2 0h1m2 0h1m1 0h1m1 0h1m1 0h3m1 0h1m6 0h1M4 28.5h2m2 0h1m1 0h3m1 0h2m2 0h1m1 0h1m1 0h1m1 0h1m3 0h1m1 0h1m1 0h2m2 0h4m1 0h1M5 29.5h2m2 0h1m4 0h1m2 0h3m2 0h1m1 0h2m1 0h1m4 0h2m4 0h1m4 0h1M4 30.5h1m2 0h2m1 0h1m1 0h1m1 0h1m1 0h2m6 0h1m4 0h2m2 0h1m4 0h2m2 0h1M4 31.5h3m2 0h1m1 0h3m1 0h1m3 0h1m2 0h2m1 0h1m2 0h1m1 0h2m1 0h1m2 0h2m2 0h1M7 32.5h2m1 0h1m1 0h1m1 0h1m1 0h3m5 0h1m2 0h2m2 0h3m1 0h2m1 0h1m2 0h1m2 0h1M6 33.5h1m1 0h1m9 0h3m2 0h1m1 0h5m1 0h3m1 0h1m1 0h1m3 0h1m1 0h2M4 34.5h1m2 0h4m1 0h2m3 0h1m3 0h2m1 0h1m1 0h1m1 0h7m1 0h1m2 0h2m1 0h3M5 35.5h4m3 0h2m4 0h3m1 0h1m4 0h1m1 0h1m2 0h2m3 0h3m3 0h2M4 36.5h1m2 0h6m3 0h2m1 0h5m1 0h1m1 0h2m2 0h3m2 0h5m2 0h1M12 37.5h5m1 0h1m2 0h2m1 0h1m2 0h2m4 0h2m1 0h1m3 0h1m1 0h1m1 0h1M4 38.5h7m2 0h2m1 0h1m1 0h2m1 0h1m1 0h1m2 0h1m1 0h1m3 0h1m1 0h3m1 0h1m1 0h5M4 39.5h1m5 0h1m1 0h1m1 0h1m1 0h2m2 0h2m2 0h3m2 0h1m1 0h4m1 0h1m3 0h2M4 40.5h1m1 0h3m1 0h1m1 0h4m4 0h2m1 0h1m1 0h3m1 0h2m1 0h1m1 0h1m1 0h5M4 41.5h1m1 0h3m1 0h1m2 0h1m1 0h1m1 0h1m1 0h1m6 0h1m3 0h1m1 0h3m1 0h2m2 0h1m1 0h3M4 42.5h1m1 0h3m1 0h1m1 0h2m1 0h2m1 0h1m4 0h4m2 0h1m2 0h2m2 0h1m2 0h4m1 0h1M4 43.5h1m5 0h1m2 0h3m2 0h1m3 0h1m2 0h1m2 0h1m3 0h2m1 0h2m1 0h2m2 0h2M4 44.5h7m3 0h1m2 0h2m1 0h3m1 0h1m1 0h1m5 0h2m1 0h6m2 0h2"/>
    <rect x="18.2" y="20.34375" width="12.600000000000001" height="8.3125" rx="1.2" fill="#F7F2E8" />
    <g transform="translate(19.6, 21.74375) scale(0.061250000000000006)">
      <path d="M140.000,50.000 C140.000,56.072 138.360,63.921 135.430,68.218 C132.500,72.505 127.840,75.760 122.430,75.760 C117.010,75.760 110.030,72.505 102.960,68.218 C95.890,63.921 87.650,56.072 80.000,50.000 C72.350,43.928 64.110,36.079 57.040,31.782 C49.970,27.495 42.990,24.240 37.570,24.240 C32.160,24.240 27.500,27.495 24.570,31.782 C21.640,36.079 20.000,43.928 20.000,50.000 C20.000,56.072 21.640,63.921 24.570,68.218 C27.500,72.505 32.160,75.760 37.570,75.760 C42.990,75.760 49.970,72.505 57.040,68.218 C64.110,63.921 72.350,56.072 80.000,50.000 C87.650,43.928 95.890,36.079 102.960,31.782 C110.030,27.495 117.010,24.240 122.430,24.240 C127.840,24.240 132.500,27.495 135.430,31.782 C138.360,36.079 140.000,43.928 140.000,50.000 Z" fill="none" stroke="#1F4D3A" stroke-width="4" stroke-linejoin="round" stroke-linecap="round" />
      <path d="M80,32.45 C81,37.45 83,39.45 88,40.45 C83,41.45 81,44.06 80,49.06 C79,44.06 77,41.45 72,40.45 C77,39.45 79,37.45 80,32.45 Z" fill="#C8A44D" />
    </g>
  </svg>
